<svg xmlns="http://www.w3.org/2000/svg" xmlns:xlink="http://www.w3.org/1999/xlink" width="500" zoomAndPan="magnify" viewBox="0 0 375 374.999991" height="500" preserveAspectRatio="xMidYMid meet" version="1.2"><defs><clipPath id="56b8a1c423"><path d="M 132.28125 164 L 167.53125 164 L 167.53125 199.183594 L 132.28125 199.183594 Z M 132.28125 164 "/></clipPath><clipPath id="2c4120a861"><path d="M 132.28125 163.933594 L 167.53125 163.933594 L 167.53125 199.183594 L 132.28125 199.183594 Z M 132.28125 163.933594 "/></clipPath><clipPath id="18ed38da13"><path d="M 132.28125 164 L 167.53125 164 L 167.53125 199.183594 L 132.28125 199.183594 Z M 132.28125 164 "/></clipPath><clipPath id="ca76983d53"><path d="M 132.28125 163.933594 L 167.53125 163.933594 L 167.53125 199.183594 L 132.28125 199.183594 Z M 132.28125 163.933594 "/></clipPath></defs><g id="d2c566c8f7"><g style="fill:#000000;fill-opacity:0.4;"><g transform="translate(49.708841, 195.567453)"><path style="stroke:none" d="M 21.640625 0 L 20.15625 -5.625 L 10.421875 -5.625 L 8.90625 0 L 0 0 L 9.78125 -30.109375 L 20.59375 -30.109375 L 30.5 0 Z M 18.484375 -12.265625 L 17.1875 -17.1875 C 17.050781 -17.71875 16.851562 -18.476562 16.59375 -19.46875 C 16.332031 -20.457031 16.070312 -21.484375 15.8125 -22.546875 C 15.5625 -23.609375 15.367188 -24.476562 15.234375 -25.15625 C 15.109375 -24.476562 14.929688 -23.632812 14.703125 -22.625 C 14.484375 -21.625 14.253906 -20.628906 14.015625 -19.640625 C 13.773438 -18.660156 13.566406 -17.84375 13.390625 -17.1875 L 12.09375 -12.265625 Z M 18.484375 -12.265625 "/></g></g><g style="fill:#000000;fill-opacity:0.4;"><g transform="translate(78.817962, 195.567453)"><path style="stroke:none" d="M 28.734375 -29.984375 L 28.734375 -11.9375 C 28.734375 -9.414062 28.253906 -7.226562 27.296875 -5.375 C 26.335938 -3.53125 24.898438 -2.101562 22.984375 -1.09375 C 21.078125 -0.09375 18.679688 0.40625 15.796875 0.40625 C 11.660156 0.40625 8.503906 -0.648438 6.328125 -2.765625 C 4.160156 -4.890625 3.078125 -7.882812 3.078125 -11.75 L 3.078125 -29.984375 L 11.21875 -29.984375 L 11.21875 -12.390625 C 11.21875 -10.265625 11.613281 -8.722656 12.40625 -7.765625 C 13.195312 -6.816406 14.367188 -6.34375 15.921875 -6.34375 C 17.023438 -6.34375 17.925781 -6.550781 18.625 -6.96875 C 19.320312 -7.382812 19.828125 -8.039062 20.140625 -8.9375 C 20.460938 -9.84375 20.625 -11.003906 20.625 -12.421875 L 20.625 -29.984375 Z M 28.734375 -29.984375 "/></g></g><g style="fill:#000000;fill-opacity:0.4;"><g transform="translate(109.219076, 195.567453)"><path style="stroke:none" d="M 16.46875 0 L 8.375 0 L 8.375 -23.359375 L 1.046875 -23.359375 L 1.046875 -29.984375 L 23.765625 -29.984375 L 23.765625 -23.359375 L 16.46875 -23.359375 Z M 16.46875 0 "/></g></g><g style="fill:#000000;fill-opacity:1;"><g transform="translate(48.966377, 194.824996)"><path style="stroke:none" d="M 21.640625 0 L 20.15625 -5.625 L 10.421875 -5.625 L 8.90625 0 L 0 0 L 9.78125 -30.109375 L 20.59375 -30.109375 L 30.5 0 Z M 18.484375 -12.265625 L 17.1875 -17.1875 C 17.050781 -17.71875 16.851562 -18.476562 16.59375 -19.46875 C 16.332031 -20.457031 16.070312 -21.484375 15.8125 -22.546875 C 15.5625 -23.609375 15.367188 -24.476562 15.234375 -25.15625 C 15.109375 -24.476562 14.929688 -23.632812 14.703125 -22.625 C 14.484375 -21.625 14.253906 -20.628906 14.015625 -19.640625 C 13.773438 -18.660156 13.566406 -17.84375 13.390625 -17.1875 L 12.09375 -12.265625 Z M 18.484375 -12.265625 "/></g></g><g style="fill:#000000;fill-opacity:1;"><g transform="translate(78.075498, 194.824996)"><path style="stroke:none" d="M 28.734375 -29.984375 L 28.734375 -11.9375 C 28.734375 -9.414062 28.253906 -7.226562 27.296875 -5.375 C 26.335938 -3.53125 24.898438 -2.101562 22.984375 -1.09375 C 21.078125 -0.09375 18.679688 0.40625 15.796875 0.40625 C 11.660156 0.40625 8.503906 -0.648438 6.328125 -2.765625 C 4.160156 -4.890625 3.078125 -7.882812 3.078125 -11.75 L 3.078125 -29.984375 L 11.21875 -29.984375 L 11.21875 -12.390625 C 11.21875 -10.265625 11.613281 -8.722656 12.40625 -7.765625 C 13.195312 -6.816406 14.367188 -6.34375 15.921875 -6.34375 C 17.023438 -6.34375 17.925781 -6.550781 18.625 -6.96875 C 19.320312 -7.382812 19.828125 -8.039062 20.140625 -8.9375 C 20.460938 -9.84375 20.625 -11.003906 20.625 -12.421875 L 20.625 -29.984375 Z M 28.734375 -29.984375 "/></g></g><g style="fill:#000000;fill-opacity:1;"><g transform="translate(108.476612, 194.824996)"><path style="stroke:none" d="M 16.46875 0 L 8.375 0 L 8.375 -23.359375 L 1.046875 -23.359375 L 1.046875 -29.984375 L 23.765625 -29.984375 L 23.765625 -23.359375 L 16.46875 -23.359375 Z M 16.46875 0 "/></g></g><g style="fill:#000000;fill-opacity:0.4;"><g transform="translate(132.654148, 195.567453)"><path style="stroke:none" d=""/></g></g><g style="fill:#000000;fill-opacity:0.4;"><g transform="translate(142.17831, 195.567453)"><path style="stroke:none" d=""/></g></g><g style="fill:#000000;fill-opacity:0.4;"><g transform="translate(151.702471, 195.567453)"><path style="stroke:none" d=""/></g></g><g style="fill:#000000;fill-opacity:0.4;"><g transform="translate(161.226633, 195.567453)"><path style="stroke:none" d=""/></g></g><g style="fill:#000000;fill-opacity:1;"><g transform="translate(131.911684, 194.824996)"><path style="stroke:none" d=""/></g></g><g style="fill:#000000;fill-opacity:1;"><g transform="translate(141.435846, 194.824996)"><path style="stroke:none" d=""/></g></g><g style="fill:#000000;fill-opacity:1;"><g transform="translate(150.960007, 194.824996)"><path style="stroke:none" d=""/></g></g><g style="fill:#000000;fill-opacity:1;"><g transform="translate(160.484169, 194.824996)"><path style="stroke:none" d=""/></g></g><g style="fill:#000000;fill-opacity:0.4;"><g transform="translate(170.751805, 195.567453)"><path style="stroke:none" d="M 22.84375 -9.109375 C 22.84375 -7.484375 22.429688 -5.941406 21.609375 -4.484375 C 20.796875 -3.023438 19.523438 -1.84375 17.796875 -0.9375 C 16.066406 -0.0390625 13.832031 0.40625 11.09375 0.40625 C 9.726562 0.40625 8.53125 0.34375 7.5 0.21875 C 6.46875 0.101562 5.503906 -0.09375 4.609375 -0.375 C 3.722656 -0.65625 2.800781 -1.023438 1.84375 -1.484375 L 1.84375 -8.703125 C 3.46875 -7.878906 5.109375 -7.25 6.765625 -6.8125 C 8.421875 -6.382812 9.921875 -6.171875 11.265625 -6.171875 C 12.066406 -6.171875 12.722656 -6.265625 13.234375 -6.453125 C 13.742188 -6.648438 14.125 -6.914062 14.375 -7.25 C 14.625 -7.582031 14.75 -7.96875 14.75 -8.40625 C 14.75 -8.925781 14.566406 -9.367188 14.203125 -9.734375 C 13.835938 -10.097656 13.257812 -10.476562 12.46875 -10.875 C 11.675781 -11.269531 10.628906 -11.757812 9.328125 -12.34375 C 8.222656 -12.863281 7.222656 -13.394531 6.328125 -13.9375 C 5.429688 -14.488281 4.664062 -15.113281 4.03125 -15.8125 C 3.394531 -16.519531 2.90625 -17.34375 2.5625 -18.28125 C 2.21875 -19.226562 2.046875 -20.347656 2.046875 -21.640625 C 2.046875 -23.566406 2.519531 -25.179688 3.46875 -26.484375 C 4.425781 -27.785156 5.753906 -28.765625 7.453125 -29.421875 C 9.160156 -30.078125 11.125 -30.40625 13.34375 -30.40625 C 15.300781 -30.40625 17.0625 -30.1875 18.625 -29.75 C 20.195312 -29.3125 21.601562 -28.816406 22.84375 -28.265625 L 20.359375 -22 C 19.078125 -22.59375 17.8125 -23.0625 16.5625 -23.40625 C 15.320312 -23.757812 14.171875 -23.9375 13.109375 -23.9375 C 12.410156 -23.9375 11.835938 -23.847656 11.390625 -23.671875 C 10.941406 -23.503906 10.613281 -23.273438 10.40625 -22.984375 C 10.195312 -22.703125 10.09375 -22.375 10.09375 -22 C 10.09375 -21.539062 10.269531 -21.125 10.625 -20.75 C 10.988281 -20.382812 11.597656 -19.984375 12.453125 -19.546875 C 13.304688 -19.117188 14.472656 -18.566406 15.953125 -17.890625 C 17.421875 -17.234375 18.664062 -16.523438 19.6875 -15.765625 C 20.707031 -15.003906 21.488281 -14.09375 22.03125 -13.03125 C 22.570312 -11.96875 22.84375 -10.660156 22.84375 -9.109375 Z M 22.84375 -9.109375 "/></g></g><g style="fill:#000000;fill-opacity:0.4;"><g transform="translate(193.606045, 195.567453)"><path style="stroke:none" d="M 16.46875 0 L 8.375 0 L 8.375 -23.359375 L 1.046875 -23.359375 L 1.046875 -29.984375 L 23.765625 -29.984375 L 23.765625 -23.359375 L 16.46875 -23.359375 Z M 16.46875 0 "/></g></g><g style="fill:#000000;fill-opacity:0.4;"><g transform="translate(217.034503, 195.567453)"><path style="stroke:none" d="M 13.0625 -29.984375 C 15.78125 -29.984375 18.039062 -29.648438 19.84375 -28.984375 C 21.65625 -28.328125 23.015625 -27.34375 23.921875 -26.03125 C 24.828125 -24.71875 25.28125 -23.082031 25.28125 -21.125 C 25.28125 -19.90625 25.078125 -18.796875 24.671875 -17.796875 C 24.265625 -16.796875 23.679688 -15.90625 22.921875 -15.125 C 22.160156 -14.34375 21.253906 -13.65625 20.203125 -13.0625 L 28.9375 0 L 19.75 0 L 13.390625 -10.90625 L 11.34375 -10.90625 L 11.34375 0 L 3.234375 0 L 3.234375 -29.984375 Z M 12.9375 -23.84375 L 11.34375 -23.84375 L 11.34375 -17 L 12.859375 -17 C 14.097656 -17 15.113281 -17.269531 15.90625 -17.8125 C 16.707031 -18.363281 17.109375 -19.34375 17.109375 -20.75 C 17.109375 -21.71875 16.78125 -22.472656 16.125 -23.015625 C 15.46875 -23.566406 14.40625 -23.84375 12.9375 -23.84375 Z M 12.9375 -23.84375 "/></g></g><g style="fill:#000000;fill-opacity:0.4;"><g transform="translate(244.072335, 195.567453)"><path style="stroke:none" d="M 21.640625 0 L 20.15625 -5.625 L 10.421875 -5.625 L 8.90625 0 L 0 0 L 9.78125 -30.109375 L 20.59375 -30.109375 L 30.5 0 Z M 18.484375 -12.265625 L 17.1875 -17.1875 C 17.050781 -17.71875 16.851562 -18.476562 16.59375 -19.46875 C 16.332031 -20.457031 16.070312 -21.484375 15.8125 -22.546875 C 15.5625 -23.609375 15.367188 -24.476562 15.234375 -25.15625 C 15.109375 -24.476562 14.929688 -23.632812 14.703125 -22.625 C 14.484375 -21.625 14.253906 -20.628906 14.015625 -19.640625 C 13.773438 -18.660156 13.566406 -17.84375 13.390625 -17.1875 L 12.09375 -12.265625 Z M 18.484375 -12.265625 "/></g></g><g style="fill:#000000;fill-opacity:0.4;"><g transform="translate(273.181456, 195.567453)"><path style="stroke:none" d="M 3.234375 0 L 3.234375 -29.984375 L 11.34375 -29.984375 L 11.34375 -6.546875 L 22.890625 -6.546875 L 22.890625 0 Z M 3.234375 0 "/></g></g><g style="fill:#000000;fill-opacity:0.4;"><g transform="translate(296.240773, 195.567453)"><path style="stroke:none" d="M 3.234375 0 L 3.234375 -29.984375 L 11.375 -29.984375 L 11.375 0 Z M 3.234375 0 "/></g></g><g style="fill:#000000;fill-opacity:0.4;"><g transform="translate(309.476849, 195.567453)"><path style="stroke:none" d="M 22.84375 -9.109375 C 22.84375 -7.484375 22.429688 -5.941406 21.609375 -4.484375 C 20.796875 -3.023438 19.523438 -1.84375 17.796875 -0.9375 C 16.066406 -0.0390625 13.832031 0.40625 11.09375 0.40625 C 9.726562 0.40625 8.53125 0.34375 7.5 0.21875 C 6.46875 0.101562 5.503906 -0.09375 4.609375 -0.375 C 3.722656 -0.65625 2.800781 -1.023438 1.84375 -1.484375 L 1.84375 -8.703125 C 3.46875 -7.878906 5.109375 -7.25 6.765625 -6.8125 C 8.421875 -6.382812 9.921875 -6.171875 11.265625 -6.171875 C 12.066406 -6.171875 12.722656 -6.265625 13.234375 -6.453125 C 13.742188 -6.648438 14.125 -6.914062 14.375 -7.25 C 14.625 -7.582031 14.75 -7.96875 14.75 -8.40625 C 14.75 -8.925781 14.566406 -9.367188 14.203125 -9.734375 C 13.835938 -10.097656 13.257812 -10.476562 12.46875 -10.875 C 11.675781 -11.269531 10.628906 -11.757812 9.328125 -12.34375 C 8.222656 -12.863281 7.222656 -13.394531 6.328125 -13.9375 C 5.429688 -14.488281 4.664062 -15.113281 4.03125 -15.8125 C 3.394531 -16.519531 2.90625 -17.34375 2.5625 -18.28125 C 2.21875 -19.226562 2.046875 -20.347656 2.046875 -21.640625 C 2.046875 -23.566406 2.519531 -25.179688 3.46875 -26.484375 C 4.425781 -27.785156 5.753906 -28.765625 7.453125 -29.421875 C 9.160156 -30.078125 11.125 -30.40625 13.34375 -30.40625 C 15.300781 -30.40625 17.0625 -30.1875 18.625 -29.75 C 20.195312 -29.3125 21.601562 -28.816406 22.84375 -28.265625 L 20.359375 -22 C 19.078125 -22.59375 17.8125 -23.0625 16.5625 -23.40625 C 15.320312 -23.757812 14.171875 -23.9375 13.109375 -23.9375 C 12.410156 -23.9375 11.835938 -23.847656 11.390625 -23.671875 C 10.941406 -23.503906 10.613281 -23.273438 10.40625 -22.984375 C 10.195312 -22.703125 10.09375 -22.375 10.09375 -22 C 10.09375 -21.539062 10.269531 -21.125 10.625 -20.75 C 10.988281 -20.382812 11.597656 -19.984375 12.453125 -19.546875 C 13.304688 -19.117188 14.472656 -18.566406 15.953125 -17.890625 C 17.421875 -17.234375 18.664062 -16.523438 19.6875 -15.765625 C 20.707031 -15.003906 21.488281 -14.09375 22.03125 -13.03125 C 22.570312 -11.96875 22.84375 -10.660156 22.84375 -9.109375 Z M 22.84375 -9.109375 "/></g></g><g style="fill:#000000;fill-opacity:1;"><g transform="translate(170.009341, 194.824996)"><path style="stroke:none" d="M 22.84375 -9.109375 C 22.84375 -7.484375 22.429688 -5.941406 21.609375 -4.484375 C 20.796875 -3.023438 19.523438 -1.84375 17.796875 -0.9375 C 16.066406 -0.0390625 13.832031 0.40625 11.09375 0.40625 C 9.726562 0.40625 8.53125 0.34375 7.5 0.21875 C 6.46875 0.101562 5.503906 -0.09375 4.609375 -0.375 C 3.722656 -0.65625 2.800781 -1.023438 1.84375 -1.484375 L 1.84375 -8.703125 C 3.46875 -7.878906 5.109375 -7.25 6.765625 -6.8125 C 8.421875 -6.382812 9.921875 -6.171875 11.265625 -6.171875 C 12.066406 -6.171875 12.722656 -6.265625 13.234375 -6.453125 C 13.742188 -6.648438 14.125 -6.914062 14.375 -7.25 C 14.625 -7.582031 14.75 -7.96875 14.75 -8.40625 C 14.75 -8.925781 14.566406 -9.367188 14.203125 -9.734375 C 13.835938 -10.097656 13.257812 -10.476562 12.46875 -10.875 C 11.675781 -11.269531 10.628906 -11.757812 9.328125 -12.34375 C 8.222656 -12.863281 7.222656 -13.394531 6.328125 -13.9375 C 5.429688 -14.488281 4.664062 -15.113281 4.03125 -15.8125 C 3.394531 -16.519531 2.90625 -17.34375 2.5625 -18.28125 C 2.21875 -19.226562 2.046875 -20.347656 2.046875 -21.640625 C 2.046875 -23.566406 2.519531 -25.179688 3.46875 -26.484375 C 4.425781 -27.785156 5.753906 -28.765625 7.453125 -29.421875 C 9.160156 -30.078125 11.125 -30.40625 13.34375 -30.40625 C 15.300781 -30.40625 17.0625 -30.1875 18.625 -29.75 C 20.195312 -29.3125 21.601562 -28.816406 22.84375 -28.265625 L 20.359375 -22 C 19.078125 -22.59375 17.8125 -23.0625 16.5625 -23.40625 C 15.320312 -23.757812 14.171875 -23.9375 13.109375 -23.9375 C 12.410156 -23.9375 11.835938 -23.847656 11.390625 -23.671875 C 10.941406 -23.503906 10.613281 -23.273438 10.40625 -22.984375 C 10.195312 -22.703125 10.09375 -22.375 10.09375 -22 C 10.09375 -21.539062 10.269531 -21.125 10.625 -20.75 C 10.988281 -20.382812 11.597656 -19.984375 12.453125 -19.546875 C 13.304688 -19.117188 14.472656 -18.566406 15.953125 -17.890625 C 17.421875 -17.234375 18.664062 -16.523438 19.6875 -15.765625 C 20.707031 -15.003906 21.488281 -14.09375 22.03125 -13.03125 C 22.570312 -11.96875 22.84375 -10.660156 22.84375 -9.109375 Z M 22.84375 -9.109375 "/></g></g><g style="fill:#000000;fill-opacity:1;"><g transform="translate(192.863581, 194.824996)"><path style="stroke:none" d="M 16.46875 0 L 8.375 0 L 8.375 -23.359375 L 1.046875 -23.359375 L 1.046875 -29.984375 L 23.765625 -29.984375 L 23.765625 -23.359375 L 16.46875 -23.359375 Z M 16.46875 0 "/></g></g><g style="fill:#000000;fill-opacity:1;"><g transform="translate(216.292039, 194.824996)"><path style="stroke:none" d="M 13.0625 -29.984375 C 15.78125 -29.984375 18.039062 -29.648438 19.84375 -28.984375 C 21.65625 -28.328125 23.015625 -27.34375 23.921875 -26.03125 C 24.828125 -24.71875 25.28125 -23.082031 25.28125 -21.125 C 25.28125 -19.90625 25.078125 -18.796875 24.671875 -17.796875 C 24.265625 -16.796875 23.679688 -15.90625 22.921875 -15.125 C 22.160156 -14.34375 21.253906 -13.65625 20.203125 -13.0625 L 28.9375 0 L 19.75 0 L 13.390625 -10.90625 L 11.34375 -10.90625 L 11.34375 0 L 3.234375 0 L 3.234375 -29.984375 Z M 12.9375 -23.84375 L 11.34375 -23.84375 L 11.34375 -17 L 12.859375 -17 C 14.097656 -17 15.113281 -17.269531 15.90625 -17.8125 C 16.707031 -18.363281 17.109375 -19.34375 17.109375 -20.75 C 17.109375 -21.71875 16.78125 -22.472656 16.125 -23.015625 C 15.46875 -23.566406 14.40625 -23.84375 12.9375 -23.84375 Z M 12.9375 -23.84375 "/></g></g><g style="fill:#000000;fill-opacity:1;"><g transform="translate(243.329871, 194.824996)"><path style="stroke:none" d="M 21.640625 0 L 20.15625 -5.625 L 10.421875 -5.625 L 8.90625 0 L 0 0 L 9.78125 -30.109375 L 20.59375 -30.109375 L 30.5 0 Z M 18.484375 -12.265625 L 17.1875 -17.1875 C 17.050781 -17.71875 16.851562 -18.476562 16.59375 -19.46875 C 16.332031 -20.457031 16.070312 -21.484375 15.8125 -22.546875 C 15.5625 -23.609375 15.367188 -24.476562 15.234375 -25.15625 C 15.109375 -24.476562 14.929688 -23.632812 14.703125 -22.625 C 14.484375 -21.625 14.253906 -20.628906 14.015625 -19.640625 C 13.773438 -18.660156 13.566406 -17.84375 13.390625 -17.1875 L 12.09375 -12.265625 Z M 18.484375 -12.265625 "/></g></g><g style="fill:#000000;fill-opacity:1;"><g transform="translate(272.438992, 194.824996)"><path style="stroke:none" d="M 3.234375 0 L 3.234375 -29.984375 L 11.34375 -29.984375 L 11.34375 -6.546875 L 22.890625 -6.546875 L 22.890625 0 Z M 3.234375 0 "/></g></g><g style="fill:#000000;fill-opacity:1;"><g transform="translate(295.498309, 194.824996)"><path style="stroke:none" d="M 3.234375 0 L 3.234375 -29.984375 L 11.375 -29.984375 L 11.375 0 Z M 3.234375 0 "/></g></g><g style="fill:#000000;fill-opacity:1;"><g transform="translate(308.734385, 194.824996)"><path style="stroke:none" d="M 22.84375 -9.109375 C 22.84375 -7.484375 22.429688 -5.941406 21.609375 -4.484375 C 20.796875 -3.023438 19.523438 -1.84375 17.796875 -0.9375 C 16.066406 -0.0390625 13.832031 0.40625 11.09375 0.40625 C 9.726562 0.40625 8.53125 0.34375 7.5 0.21875 C 6.46875 0.101562 5.503906 -0.09375 4.609375 -0.375 C 3.722656 -0.65625 2.800781 -1.023438 1.84375 -1.484375 L 1.84375 -8.703125 C 3.46875 -7.878906 5.109375 -7.25 6.765625 -6.8125 C 8.421875 -6.382812 9.921875 -6.171875 11.265625 -6.171875 C 12.066406 -6.171875 12.722656 -6.265625 13.234375 -6.453125 C 13.742188 -6.648438 14.125 -6.914062 14.375 -7.25 C 14.625 -7.582031 14.75 -7.96875 14.75 -8.40625 C 14.75 -8.925781 14.566406 -9.367188 14.203125 -9.734375 C 13.835938 -10.097656 13.257812 -10.476562 12.46875 -10.875 C 11.675781 -11.269531 10.628906 -11.757812 9.328125 -12.34375 C 8.222656 -12.863281 7.222656 -13.394531 6.328125 -13.9375 C 5.429688 -14.488281 4.664062 -15.113281 4.03125 -15.8125 C 3.394531 -16.519531 2.90625 -17.34375 2.5625 -18.28125 C 2.21875 -19.226562 2.046875 -20.347656 2.046875 -21.640625 C 2.046875 -23.566406 2.519531 -25.179688 3.46875 -26.484375 C 4.425781 -27.785156 5.753906 -28.765625 7.453125 -29.421875 C 9.160156 -30.078125 11.125 -30.40625 13.34375 -30.40625 C 15.300781 -30.40625 17.0625 -30.1875 18.625 -29.75 C 20.195312 -29.3125 21.601562 -28.816406 22.84375 -28.265625 L 20.359375 -22 C 19.078125 -22.59375 17.8125 -23.0625 16.5625 -23.40625 C 15.320312 -23.757812 14.171875 -23.9375 13.109375 -23.9375 C 12.410156 -23.9375 11.835938 -23.847656 11.390625 -23.671875 C 10.941406 -23.503906 10.613281 -23.273438 10.40625 -22.984375 C 10.195312 -22.703125 10.09375 -22.375 10.09375 -22 C 10.09375 -21.539062 10.269531 -21.125 10.625 -20.75 C 10.988281 -20.382812 11.597656 -19.984375 12.453125 -19.546875 C 13.304688 -19.117188 14.472656 -18.566406 15.953125 -17.890625 C 17.421875 -17.234375 18.664062 -16.523438 19.6875 -15.765625 C 20.707031 -15.003906 21.488281 -14.09375 22.03125 -13.03125 C 22.570312 -11.96875 22.84375 -10.660156 22.84375 -9.109375 Z M 22.84375 -9.109375 "/></g></g><g style="fill:#000000;fill-opacity:0.4;"><g transform="translate(332.341635, 195.567453)"><path style="stroke:none" d=""/></g></g><g style="fill:#000000;fill-opacity:0.4;"><g transform="translate(341.865796, 195.567453)"><path style="stroke:none" d=""/></g></g><g style="fill:#000000;fill-opacity:1;"><g transform="translate(331.599171, 194.824996)"><path style="stroke:none" d=""/></g></g><g style="fill:#000000;fill-opacity:1;"><g transform="translate(341.123333, 194.824996)"><path style="stroke:none" d=""/></g></g><path style=" stroke:none;fill-rule:nonzero;fill:#15191d;fill-opacity:1;" d="M 136.945312 175.898438 C 136.945312 175.898438 136.507812 178.203125 137.992188 178.535156 C 139.472656 178.863281 142.433594 177.984375 142.820312 179.082031 C 142.820312 179.082031 144.015625 179.21875 145.449219 178.546875 L 144.527344 181.558594 C 144.527344 181.558594 142.765625 181.660156 142.214844 181.9375 C 142.214844 181.9375 142.148438 182.429688 141.167969 182.539062 C 140.183594 182.648438 136.832031 183.734375 136.148438 184.839844 C 136.148438 184.839844 133.703125 182.042969 136.945312 175.898438 "/><path style="fill:none;stroke-width:99.779999;stroke-linecap:round;stroke-linejoin:round;stroke:#0c0d21;stroke-opacity:1;stroke-miterlimit:10;" d="M 4905.206284 13103.339402 C 4905.206284 13103.339402 4712.731093 12089.407594 5365.771919 11943.332672 C 6017.094216 11798.976279 7319.73881 12185.645189 7489.87313 11702.738684 C 7489.87313 11702.738684 8015.742848 11642.590187 8646.442803 11938.177087 L 8240.870079 10613.191623 C 8240.870079 10613.191623 7465.813731 10568.509882 7223.501214 10446.494359 C 7223.501214 10446.494359 7194.28623 10229.95977 6762.93558 10181.840972 C 6329.866401 10133.722174 4855.368958 9655.971255 4554.626472 9169.627693 C 4554.626472 9169.627693 3478.827639 10400.09409 4905.206284 13103.339402 Z M 4905.206284 13103.339402 " transform="matrix(0.00227302,0,0,-0.00227302,125.795679,205.682593)"/><path style=" stroke:none;fill-rule:nonzero;fill:#15191d;fill-opacity:1;" d="M 162.863281 175.898438 C 162.863281 175.898438 163.300781 178.203125 161.820312 178.535156 C 160.335938 178.863281 157.375 177.984375 156.988281 179.082031 C 156.988281 179.082031 155.792969 179.21875 154.359375 178.546875 L 155.28125 181.558594 C 155.28125 181.558594 157.042969 181.660156 157.59375 181.9375 C 157.59375 181.9375 157.660156 182.429688 158.644531 182.539062 C 159.625 182.648438 162.976562 183.734375 163.660156 184.839844 C 163.660156 184.839844 166.105469 182.042969 162.863281 175.898438 "/><path style="fill:none;stroke-width:91.710999;stroke-linecap:round;stroke-linejoin:round;stroke:#0c0d21;stroke-opacity:1;stroke-miterlimit:10;" d="M 14990.222105 12043.510715 C 14990.222105 12043.510715 15165.549923 11111.588079 14566.908094 10977.328039 C 13966.686735 10844.647528 12769.403078 11200.041753 12613.029619 10756.193854 C 12613.029619 10756.193854 12129.693472 10700.910308 11550.006002 10972.589449 L 11922.775056 9754.771903 C 11922.775056 9754.771903 12635.143037 9713.704126 12857.856752 9601.557503 C 12857.856752 9601.557503 12884.70876 9402.536737 13282.750293 9358.3099 C 13679.212295 9314.083063 15036.028472 8874.973753 15310.866673 8427.966794 C 15310.866673 8427.966794 16299.652385 9558.910196 14990.222105 12043.510715 Z M 14990.222105 12043.510715 " transform="matrix(0.00247305,0,0,-0.00247305,125.795679,205.682593)"/><path style=" stroke:none;fill-rule:nonzero;fill:#15191d;fill-opacity:1;" d="M 153.753906 190.003906 C 153.753906 190.003906 151.882812 187.671875 153.367188 185.675781 L 149.90625 184.839844 L 146.445312 185.675781 C 147.929688 187.671875 146.058594 190.003906 146.058594 190.003906 C 145.289062 190.660156 145.179688 192.03125 145.179688 192.03125 L 145.179688 195.324219 C 147.484375 196.3125 149.90625 196.148438 149.90625 196.148438 C 149.90625 196.148438 152.324219 196.3125 154.628906 195.324219 L 154.628906 192.03125 C 154.628906 192.03125 154.519531 190.660156 153.753906 190.003906 "/><path style="fill:none;stroke-width:99.779999;stroke-linecap:round;stroke-linejoin:round;stroke:#0c0d21;stroke-opacity:1;stroke-miterlimit:10;" d="M 12300.034368 6897.733031 C 12300.034368 6897.733031 11476.859223 7923.694539 12129.900048 8801.862596 L 10607.283808 9169.627693 L 9084.667567 8801.862596 C 9737.708393 7923.694539 8914.533247 6897.733031 8914.533247 6897.733031 C 8575.983135 6609.020245 8527.864337 6005.816746 8527.864337 6005.816746 L 8527.864337 4557.09723 C 9541.796145 4122.309523 10607.283808 4194.487719 10607.283808 4194.487719 C 10607.283808 4194.487719 11671.052942 4122.309523 12684.98475 4557.09723 L 12684.98475 6005.816746 C 12684.98475 6005.816746 12636.865952 6609.020245 12300.034368 6897.733031 Z M 12300.034368 6897.733031 " transform="matrix(0.00227302,0,0,-0.00227302,125.795679,205.682593)"/><path style=" stroke:none;fill-rule:nonzero;fill:#20252b;fill-opacity:1;" d="M 155.28125 181.558594 C 155.28125 184.527344 152.875 186.9375 149.90625 186.9375 C 146.933594 186.9375 144.527344 184.527344 144.527344 181.558594 C 144.527344 178.589844 146.933594 176.179688 149.90625 176.179688 C 152.875 176.179688 155.28125 178.589844 155.28125 181.558594 "/><path style="fill:none;stroke-width:99.779999;stroke-linecap:round;stroke-linejoin:round;stroke:#0c0d21;stroke-opacity:1;stroke-miterlimit:10;" d="M 12971.979007 10613.191623 C 12971.979007 9307.109972 11913.365459 8246.777894 10607.283808 8246.777894 C 9299.483628 8246.777894 8240.870079 9307.109972 8240.870079 10613.191623 C 8240.870079 11919.273274 9299.483628 12979.605351 10607.283808 12979.605351 C 11913.365459 12979.605351 12971.979007 11919.273274 12971.979007 10613.191623 Z M 12971.979007 10613.191623 " transform="matrix(0.00227302,0,0,-0.00227302,125.795679,205.682593)"/><path style=" stroke:none;fill-rule:nonzero;fill:#ffffff;fill-opacity:1;" d="M 149.90625 184.007812 C 148.550781 184.007812 147.453125 182.910156 147.453125 181.558594 C 147.453125 180.203125 148.550781 179.105469 149.90625 179.105469 C 151.257812 179.105469 152.355469 180.203125 152.355469 181.558594 C 152.355469 182.910156 151.257812 184.007812 149.90625 184.007812 Z M 149.90625 178.777344 C 148.371094 178.777344 147.125 180.023438 147.125 181.558594 C 147.125 183.09375 148.371094 184.339844 149.90625 184.339844 C 151.441406 184.339844 152.683594 183.09375 152.683594 181.558594 C 152.683594 180.023438 151.441406 178.777344 149.90625 178.777344 "/><path style="fill:none;stroke-width:99.779999;stroke-linecap:round;stroke-linejoin:round;stroke:#0c0d21;stroke-opacity:1;stroke-miterlimit:10;" d="M 10607.283808 9535.674261 C 10010.954422 9535.674261 9528.047917 10018.580766 9528.047917 10613.191623 C 9528.047917 11209.521008 10010.954422 11692.427513 10607.283808 11692.427513 C 11201.894664 11692.427513 11684.80117 11209.521008 11684.80117 10613.191623 C 11684.80117 10018.580766 11201.894664 9535.674261 10607.283808 9535.674261 Z M 10607.283808 11836.783906 C 9931.902112 11836.783906 9383.691524 11288.573318 9383.691524 10613.191623 C 9383.691524 9937.809927 9931.902112 9389.599339 10607.283808 9389.599339 C 11282.665503 9389.599339 11829.157563 9937.809927 11829.157563 10613.191623 C 11829.157563 11288.573318 11282.665503 11836.783906 10607.283808 11836.783906 Z M 10607.283808 11836.783906 " transform="matrix(0.00227302,0,0,-0.00227302,125.795679,205.682593)"/><g clip-rule="nonzero" clip-path="url(#56b8a1c423)"><path style=" stroke:none;fill-rule:nonzero;fill:#20252b;fill-opacity:1;" d="M 149.90625 195.695312 C 142.097656 195.695312 135.765625 189.367188 135.765625 181.558594 C 135.765625 173.75 142.097656 167.417969 149.90625 167.417969 C 157.714844 167.417969 164.042969 173.75 164.042969 181.558594 C 164.042969 189.367188 157.714844 195.695312 149.90625 195.695312 Z M 149.90625 164.046875 C 140.234375 164.046875 132.394531 171.886719 132.394531 181.558594 C 132.394531 191.230469 140.234375 199.070312 149.90625 199.070312 C 159.578125 199.070312 167.417969 191.230469 167.417969 181.558594 C 167.417969 171.886719 159.578125 164.046875 149.90625 164.046875 "/></g><g clip-rule="nonzero" clip-path="url(#2c4120a861)"><path style="fill:none;stroke-width:88.790001;stroke-linecap:round;stroke-linejoin:round;stroke:#0c0d21;stroke-opacity:1;stroke-miterlimit:10;" d="M 9438.766306 3909.804019 C 6381.870933 3909.804019 3903.017807 6387.127933 3903.017807 9444.023306 C 3903.017807 12500.918678 6381.870933 14979.771805 9438.766306 14979.771805 C 12495.661679 14979.771805 14972.985593 12500.918678 14972.985593 9444.023306 C 14972.985593 6387.127933 12495.661679 3909.804019 9438.766306 3909.804019 Z M 9438.766306 16299.482013 C 5652.43667 16299.482013 2583.307598 13230.352942 2583.307598 9444.023306 C 2583.307598 5657.693669 5652.43667 2588.564598 9438.766306 2588.564598 C 13225.095943 2588.564598 16294.225014 5657.693669 16294.225014 9444.023306 C 16294.225014 13230.352942 13225.095943 16299.482013 9438.766306 16299.482013 Z M 9438.766306 16299.482013 " transform="matrix(0.00255442,0,0,-0.00255442,125.795679,205.682593)"/></g><g clip-rule="nonzero" clip-path="url(#18ed38da13)"><path style=" stroke:none;fill-rule:nonzero;fill:#171a1f;fill-opacity:1;" d="M 149.90625 197.671875 C 141.007812 197.671875 133.792969 190.457031 133.792969 181.558594 C 133.792969 172.660156 141.007812 165.445312 149.90625 165.445312 C 158.804688 165.445312 166.015625 172.660156 166.015625 181.558594 C 166.015625 190.457031 158.804688 197.671875 149.90625 197.671875 Z M 149.90625 164.046875 C 140.234375 164.046875 132.394531 171.886719 132.394531 181.558594 C 132.394531 191.230469 140.234375 199.070312 149.90625 199.070312 C 159.578125 199.070312 167.417969 191.230469 167.417969 181.558594 C 167.417969 171.886719 159.578125 164.046875 149.90625 164.046875 "/></g><g clip-rule="nonzero" clip-path="url(#ca76983d53)"><path style="fill:none;stroke-width:88.790001;stroke-linecap:round;stroke-linejoin:round;stroke:#0c0d21;stroke-opacity:1;stroke-miterlimit:10;" d="M 9438.766306 3136.022598 C 5955.220703 3136.022598 3130.765599 5960.477703 3130.765599 9444.023306 C 3130.765599 12927.568908 5955.220703 15752.024013 9438.766306 15752.024013 C 12922.311909 15752.024013 15746.767013 12927.568908 15746.767013 9444.023306 C 15746.767013 5960.477703 12922.311909 3136.022598 9438.766306 3136.022598 Z M 9438.766306 16299.482013 C 5652.43667 16299.482013 2583.307598 13230.352942 2583.307598 9444.023306 C 2583.307598 5657.693669 5652.43667 2588.564598 9438.766306 2588.564598 C 13225.095943 2588.564598 16294.225014 5657.693669 16294.225014 9444.023306 C 16294.225014 13230.352942 13225.095943 16299.482013 9438.766306 16299.482013 Z M 9438.766306 16299.482013 " transform="matrix(0.00255442,0,0,-0.00255442,125.795679,205.682593)"/></g></g></svg>